<?xml version="1.0" encoding="UTF-8"?><svg id="Capa_2" xmlns="http://www.w3.org/2000/svg" viewBox="0 0 1668.53 456.13"><defs><style>.cls-1{fill:#fff;}.cls-1,.cls-2{fill-rule:evenodd;}.cls-2{fill:#e30f13;}</style></defs><g id="Capa_1-2"><polygon class="cls-1" points="1361.06 139.95 1381.42 139.95 1381.42 210.95 1361.06 210.95 1361.06 139.95 1361.06 139.95"/><polygon class="cls-1" points="1106.48 210.95 1126.85 210.95 1164.18 210.95 1184.55 210.95 1184.55 200.49 1184.55 139.95 1164.18 139.95 1164.18 200.49 1126.85 200.49 1126.85 139.95 1106.48 139.95 1106.48 200.49 1106.48 210.95 1106.48 210.95"/><path class="cls-1" d="m934.78,139.95h76.82l-10.51,10.46h-45.94s0,19.81,0,19.81h51.76v10.47s0,0,0,0h-51.76v19.8h45.54s.02,0,.04,0h.36l10.51,10.46h-76.82v-71h0Z"/><path class="cls-1" d="m835.78,192.28l20.37,20.93v-62.8h43.56c.66,0,1.13.47,1.13,1.13v26.59h-36.85l57.5,58.67.02-24.61-20.98-21.61h20.98l.03-40.35c0-.68,0-1.34,0-1.98-.04-2.57-.22-4.73-.69-5.68-.7-1.43-2.12-2.62-4.16-2.62h-80.9v52.33h0Z"/><path class="cls-1" d="m1018.51,313.37h20.37v-40.73l20.92,14.14h.01s.01,0,.01,0l20.92-14.14v40.73h20.37v-70.72c-13.9,9.28-27.58,19.01-41.3,28.57-13.71-9.56-27.4-19.29-41.3-28.57v70.72h0Z"/><polygon class="cls-1" points="835.78 313.37 915.54 313.37 915.54 286.36 915.54 274.9 915.54 274.05 914.7 274.05 899.46 274.05 895.18 274.05 895.18 302.9 856.14 302.9 856.14 253.12 904.8 253.12 915.26 242.65 835.78 242.65 835.78 313.37 835.78 313.37"/><path class="cls-1" d="m1042.66,150.42h32.42c.66,0,1.13.47,1.13,1.13v25.74h-33.55v-26.87h0Zm-20.48,60.53h20.48v-23.2s54.2,0,54.2,0v-41.59c0-3.58-1.59-6.22-5.09-6.22h-69.59v71h0Z"/><path class="cls-1" d="m1264.32,168.52h5.09v42.43h-74.96v-71h65.06c3.04,0,4.81,2.57,4.81,5.66v22.91h0Zm-49.5,10.47h34.23v21.5h-34.23v-21.5h0Zm1.13-28.57h32.81c.62,0,1.13.51,1.13,1.13v16.97h-35.08v-18.1h1.13Z"/><polygon class="cls-1" points="1281.01 139.95 1301.37 139.95 1301.37 200.49 1353.14 200.49 1353.04 200.6 1342.63 210.95 1301.37 210.95 1301.37 210.95 1281.01 210.95 1281.01 210.95 1281.01 200.49 1281.01 139.95 1281.01 139.95"/><polygon class="cls-1" points="1392.74 139.95 1413.11 139.95 1470.24 139.95 1459.83 150.31 1459.73 150.42 1413.11 150.42 1413.11 200.49 1470.24 200.49 1459.83 210.84 1459.73 210.95 1413.11 210.95 1413.11 210.95 1392.74 210.95 1392.74 210.95 1392.74 200.49 1392.74 150.42 1392.74 139.95 1392.74 139.95"/><path class="cls-1" d="m1526.93,139.67h48.83c2.34,0,4.25,1.91,4.25,4.25v4.14h0v63.17h-53.08l-24.72-24.72v-14.5h0v-28.13s0-4.22,0-4.22h24.72Zm13.63,11.6h19.07v49.5h-19.07l-17.98-17.98v-31.52h17.98Z"/><polygon class="cls-1" points="1592.16 139.95 1612.53 139.95 1668.53 139.95 1658.12 150.31 1658.02 150.42 1612.53 150.42 1612.53 164.85 1666.17 164.85 1655.76 175.44 1655.66 175.56 1612.53 175.56 1612.53 210.95 1592.16 210.95 1592.16 150.42 1592.16 139.95 1592.16 139.95"/><path class="cls-1" d="m1001.8,242.65c2.5,0,4.54,2.04,4.54,4.54v66.18h-20.37v-29.98h-35.92v29.98h-20.37v-70.72h72.12Zm-51.75,10.47h34.79c.66,0,1.13.47,1.13,1.13v18.67h-35.92v-19.8h0Z"/><polygon class="cls-1" points="1125.91 242.65 1133.07 242.65 1189.27 242.65 1178.86 253.01 1178.76 253.12 1133.07 253.12 1133.07 272.64 1184.55 272.64 1184.55 283.1 1133.07 283.1 1133.07 302.9 1178.76 302.9 1178.86 303.01 1189.27 313.37 1133.07 313.37 1123.09 313.37 1112.7 313.37 1112.7 242.65 1125.91 242.65 1125.91 242.65"/><path class="cls-1" d="m1198.69,242.65h74.23c2.73,0,4.97,2.24,4.97,4.97v34.35h-18.39l28.09,31.4h-25.8l-28.09-31.4h0l-10.09-11.28,1.17-1.17h32.75v-15.35c0-.58-.47-1.05-1.05-1.05h-37.42v60.25h-20.37v-70.72h0Z"/><polygon class="cls-1" points="1296.23 242.65 1310.99 242.65 1368.4 242.65 1357.99 253.01 1357.89 253.12 1310.99 253.12 1310.99 272.92 1346.92 272.92 1367.28 272.92 1367.28 283.39 1367.28 313.37 1353.75 313.37 1346.92 313.37 1299.75 313.37 1299.65 313.26 1289.24 302.9 1346.92 302.9 1346.92 283.39 1310.99 283.39 1298.82 283.39 1290.62 283.39 1290.62 242.65 1296.23 242.65 1296.23 242.65"/><path class="cls-2" d="m370.46,261.82c40.42-25.74,82.71-50.96,129.33-77.16,57.95-32.57,115.87-62.21,164.61-85.45,58.58-27.92,103.48-46.57,113.65-49.88,0,.22,0,.45.01.67v1.27c-.21,17.93-9.57,39.34-29.09,48.27-100.06,45.76-343.22,176.91-436.63,248.21,15.09,6.33,76.71,25.63,148.7,30.07,33.23,2.04,51.84-5.01,64.22-11.3,17.49-8.88,37.47-26.72,56.51-56.46,25.23-39.41,41.98-87.12,41.98-87.12l-259.35,110.74s226.14-139.96,376.6-208.8c-2.35,15.48-22,69.06-47.63,123.97-15.74,33.72-36.09,66.99-53.9,94.37-41.5,63.78-78.63,78.62-85.6,80.54-10.52,2.9-64.65.84-106.06-5.14-86.5-12.5-183.48-42.28-215.19-61.95,8.16-7.86,66.02-49.11,137.85-94.84h0ZM711.76,0h-2.03c-110.73.1-208.66,36.36-214.9,39.6-15.46,8.05-51.38,38.33-60.08,46.79-9.08,8.84-53.27,54.63-100.83,100.87-43.39,42.19-89.65,84.66-113.03,101.36-17.35,8.45-86.76-47.02-119.59-48.8,10.32,3.75,18.32,23.18,36.04,57.03,13.38,25.56,32.91,61.61,56.5,89.7,24.57,29.26,61.67,56.75,93.18,69.57-24.8-24.75-68.47-81.17-68-94.31,1.09-30.59,71.91-78.26,146.79-137.48,41.37-32.72,234.02-182.52,400.52-221-18.29-2.28-36.59-3.29-54.57-3.35h0ZM91.07,319.43c-26.07-14.19-48.06-30.3-53.09-37.37-4.08-5.76-11.83-20.64-18.56-41.05C9.16,209.88,0,170.86,0,170.86c0,0,41.88,53.88,78.76,97.22,38.14,44.84,71.32,79.2,71.32,79.2,0,0-31.51-12.89-59-27.85h0Z"/></g></svg>