<?xml version="1.0" encoding="UTF-8"?><svg id="Capa_2" xmlns="http://www.w3.org/2000/svg" viewBox="0 0 778.06 456.14"><defs><style>.cls-1{fill:#fff;fill-rule:evenodd;}</style></defs><g id="Capa_2-2"><path class="cls-1" d="m370.46,261.84c40.42-25.74,82.71-50.96,129.33-77.16,57.95-32.57,115.87-62.21,164.61-85.45,58.58-27.92,103.48-46.57,113.65-49.88,0,.22,0,.45.01.67v1.27c-.21,17.93-9.57,39.34-29.09,48.27-100.06,45.76-343.22,176.91-436.63,248.21,15.09,6.33,76.71,25.63,148.7,30.07,33.23,2.04,51.84-5.01,64.22-11.3,17.49-8.88,37.47-26.72,56.51-56.46,25.23-39.41,41.98-87.12,41.98-87.12l-259.35,110.74s226.14-139.96,376.6-208.8c-2.35,15.48-22,69.06-47.63,123.97-15.74,33.72-36.09,66.99-53.9,94.37-41.5,63.78-78.63,78.62-85.6,80.54-10.52,2.9-64.65.84-106.06-5.14-86.5-12.5-183.48-42.28-215.19-61.95,8.16-7.86,66.02-49.11,137.85-94.84h-.01ZM711.76.02h-2.03c-110.73.1-208.66,36.36-214.9,39.6-15.46,8.05-51.38,38.33-60.08,46.79-9.08,8.84-53.27,54.63-100.83,100.87-43.39,42.19-89.65,84.66-113.03,101.36-17.35,8.45-86.76-47.02-119.59-48.8,10.32,3.75,18.32,23.18,36.04,57.03,13.38,25.56,32.91,61.61,56.5,89.7,24.57,29.26,61.67,56.75,93.18,69.57-24.8-24.75-68.47-81.17-68-94.31,1.09-30.59,71.91-78.26,146.79-137.48,41.37-32.72,234.02-182.52,400.52-221-18.29-2.28-36.59-3.29-54.57-3.35h0v.02ZM91.07,319.45c-26.07-14.19-48.06-30.3-53.09-37.37-4.08-5.76-11.83-20.64-18.56-41.05C9.16,209.9,0,170.88,0,170.88c0,0,41.88,53.88,78.76,97.22,38.14,44.84,71.32,79.2,71.32,79.2,0,0-31.51-12.89-59-27.85h-.01Z"/></g></svg>